<?xml version="1.0" encoding="utf-8"?>
<!-- Generator: Adobe Illustrator 25.4.1, SVG Export Plug-In . SVG Version: 6.00 Build 0)  -->
<svg version="1.1" id="Calque_1" xmlns="http://www.w3.org/2000/svg" xmlns:xlink="http://www.w3.org/1999/xlink" x="0px" y="0px"
	 viewBox="0 0 382.9 119.1" style="enable-background:new 0 0 382.9 119.1;" xml:space="preserve">
<style type="text/css">
	.st0{fill:url(#SVGID_1_);}
	.st1{fill:#1D1D1B;}
	.st2{fill-rule:evenodd;clip-rule:evenodd;fill:#1D1D1B;}
	.st3{fill-rule:evenodd;clip-rule:evenodd;fill:#FFFFFF;}
</style>
<g>
	<g>
		<g>
			<g>
				<g>
					
						<linearGradient id="SVGID_1_" gradientUnits="userSpaceOnUse" x1="25.8197" y1="-417.1068" x2="108.3547" y2="-417.1068" gradientTransform="matrix(1 0 0 -1 0 -356.9193)">
						<stop  offset="0" style="stop-color:#C87A59"/>
						<stop  offset="1" style="stop-color:#6A5CA3"/>
					</linearGradient>
					<path class="st0" d="M108.4,58c0-1.1-0.2-2.2-0.3-3.2c-0.7-4.6-2.4-9-3.9-13.4c-1-3-2.6-5.8-4.3-8.4c-2-3.2-4.4-6.1-7.6-8.2
						c-2.6-1.7-5.2-3.3-7.9-4.7c-2.1-1-4.2-1.5-6.5-1.6c-1.7,0-3.3-0.2-5-0.5c-2.4-0.4-4.8-0.5-7.2,0.1c-2.6,0.6-5.2,1.1-7.8,1.6
						c-4.1,0.6-7.9,2.1-11.5,3.9C45.1,24.2,44,25,42.9,26c-0.9,1-2,1.7-2.9,2.7c-1.8,1.8-3.7,3.5-5.2,5.6c-1.4,2-2.8,3.9-3.6,6.2
						c-0.2,0.5-0.6,1-0.9,1.5c-0.2,0.4-0.6,0.8-0.7,1.3c-1,2.7-1.9,5.5-2.9,8.3c-0.2,0.7-0.4,1.5-0.3,2.2c0.1,2-0.2,4-0.3,5.9
						c-0.3,4.3-0.1,8.6,0.6,12.9c0.5,3.1,1.6,5.9,2.4,8.9c0.7,2.8,2.2,5.2,4,7.4c1.5,1.8,3.1,3.5,4.9,4.9c1.8,1.4,3.9,2.6,6.1,3.3
						c0.7,0.2,1.4,0.6,2,1c3.1,1.7,6.4,2.8,9.8,3.7c2.4,0.7,4.9,0.9,7.4,0.9c6.5,0,12.8-1.1,19-2.8c2.5-0.7,4.9-1.5,7.2-2.8
						c3-1.8,5.6-4.2,8-6.7c2.6-2.7,4.3-5.9,6.4-8.9c2-2.9,3-6.3,4.3-9.5c0.3-0.7,0.3-1.5,0.3-2.2c0-2,0-4,0-6
						C108.4,61.9,108.4,60,108.4,58z M92.9,66c-0.3,1.2-0.3,2.5-0.3,3.7c0,3.7-1.3,6.9-3.8,9.5c-3.4,3.7-7.4,6.6-12.5,7.9
						c-3.1,0.8-6.1,1.6-8.9,1.3c-3.2,0-6.1-0.2-8.8-0.9c-1.9-0.5-3.7-1.1-5.4-2c-1-0.5-1.9-1-2.9-1.4c-3.7-1.9-6.8-4.5-8.8-8.2
						c-3-5.5-4.5-11.3-4.1-17.5c0-0.5,0-1,0.1-1.5c0.8-2.9,1.5-5.9,3-8.5c2.1-3.7,4.5-7.2,7.6-10.2c1.1-1,2.3-1.9,3.6-2.6
						c4.6-2.5,9.5-3.6,14.7-3.5c0.8,0,1.7,0,2.5,0c2.5-0.1,4.7,0.8,7,1.4c2.5,0.7,4.5,2.2,6.6,3.5c0.5,0.3,1,0.9,1.4,1.4
						c1.7,2.2,3.3,4.4,4.9,6.6c1.4,2,2.4,4.1,3,6.5c0.6,2.5,1.2,5,1.4,7.6C93.4,61.6,93.5,63.8,92.9,66z"/>
				</g>
				<path class="st1" d="M92.9,66c-0.3,1.2-0.3,2.5-0.3,3.7c0,3.7-1.3,6.9-3.8,9.5c-3.4,3.7-7.4,6.6-12.5,7.9
					c-3.1,0.8-6.1,1.6-8.9,1.3c-3.2,0-6.1-0.2-8.8-0.9c-1.9-0.5-3.7-1.1-5.4-2c-1-0.5-1.9-1-2.9-1.4c-3.7-1.9-6.8-4.5-8.8-8.2
					c-3-5.5-4.5-11.3-4.1-17.5c0-0.5,0-1,0.1-1.5c0.8-2.9,1.5-5.9,3-8.5c2.1-3.7,4.5-7.2,7.6-10.2c1.1-1,2.3-1.9,3.6-2.6
					c4.6-2.5,9.5-3.6,14.7-3.5c0.8,0,1.7,0,2.5,0c2.5-0.1,4.7,0.8,7,1.4c2.5,0.7,4.5,2.2,6.6,3.5c0.5,0.3,1,0.9,1.4,1.4
					c1.7,2.2,3.3,4.4,4.9,6.6c1.4,2,2.4,4.1,3,6.5c0.6,2.5,1.2,5,1.4,7.6C93.4,61.6,93.5,63.8,92.9,66z"/>
				<g>
					<path class="st2" d="M122.2,68.6c-0.1,1.7-0.1,3.5-0.2,5.2c-0.3,6.5-2.7,12.3-5.8,17.9c-1.8,3.2-4.1,5.8-6.7,8.3
						c-3.5,3.5-7.3,6.3-11.7,8.4c-7,3.3-14.2,6.2-21.8,7.8c-2.5,0.5-4.9,0.8-7.5,0.7c-3.4-0.2-6.8-0.3-10.2-1.2
						c-1.6-0.4-3.3-0.7-4.9-1c-3.2-0.7-6.2-1.9-9-3.6c-3.2-1.9-6.6-3.7-9.7-5.7c-5.6-3.7-10.3-8.3-14.1-14
						c-2.6-3.9-4.9-7.9-6.7-12.2c-1-2.3-1.7-4.7-1.7-7.2c0-0.2,0-0.5-0.1-0.7c-0.5-2.5-0.8-5.1-1.1-7.7c-0.4-3.1-0.3-6.1-0.3-9.2
						c0-0.7,0-1.5,0.2-2.2C12,48,13,43.8,14.7,39.8c1-2.4,2.1-4.7,3.5-6.9c1.9-3,4-5.9,6.4-8.6c2.6-2.7,5.4-5.2,8.3-7.5
						c2.3-1.9,4.9-3.2,7.4-4.6c2.5-1.5,5.3-2.5,7.6-4.3c0.8-0.6,1.9-0.9,3-1.2c1.8-0.5,3.7-1.1,5.6-1.4c2-0.4,3.9-0.6,5.9-0.9
						c0.5-0.1,1,0,1.5,0.2c1.3,0.6,2.6,0.6,3.9,0.6c3.9,0.1,7.8,0.7,11.7,1.3c6.3,0.9,12,3.4,17.5,6.4c1.8,1,3.4,2.3,5,3.7
						c2.1,1.8,4,3.8,5.9,5.8c0.5,0.5,0.9,1.2,1.3,1.8c0.5,0.8,1,1.6,1.5,2.3c3.2,3.8,4.8,8.3,6.5,12.9c2.2,5.8,3.2,11.9,4.3,17.9
						C122.3,60.9,122.3,64.7,122.2,68.6z M118.9,68.3c-0.1-2.8-0.2-5.3-0.3-7.8c-0.2-3.8-1.1-7.4-1.9-11.1c-0.5-2.1-0.9-4.3-1.5-6.3
						c-1-3-2.2-5.9-3.3-8.9c-0.4-1-0.9-2-1.5-2.9c-1.3-2.1-2.6-4.1-4-6.1c-0.6-0.8-1.2-1.6-1.9-2.3c-1-1-2-2-3-3
						c-3.5-3.3-7.3-6.1-11.8-7.7c-1-0.4-2-0.8-3-1.2c-2.8-1.3-5.8-2-8.9-2.4c-0.5-0.1-1-0.1-1.5-0.2c-5.2-1-10.4-1.1-15.7-0.8
						c-0.9,0.1-1.8,0.1-2.7,0.4c-2.4,0.8-4.8,1.4-7.1,2.5c-3.6,1.6-7.2,3.5-10.7,5.3c-0.1,0-0.1,0.1-0.2,0.1c-3.4,1.9-6.4,4.5-9.3,7
						c-3.6,3.1-6.4,6.9-9.1,10.8c-2.3,3.3-3.9,7-5.2,10.7c-0.2,0.7-0.3,1.5-0.5,2.2c-0.4,1.7-0.8,3.4-1.1,5.1
						C14.3,53,14,54.1,14,55.3c0,2.5-0.3,5,0.3,7.5c0.1,0.5,0.1,1,0.1,1.5c0,1.6,0.2,3.2,0.6,4.7c0.2,0.8,0.3,1.6,0.4,2.5
						c0.2,3.1,1.1,6.1,2.5,8.8c1.6,3.2,3.3,6.3,5.3,9.3c3.6,5.4,8,9.8,13.4,13.3c3.7,2.4,7.6,4.5,11.5,6.6c2,1.1,4.3,1.8,6.6,2.3
						c1.8,0.3,3.6,0.8,5.4,1.1c6.9,1.4,13.8,1.2,20.5-1c3.1-1,6.1-2.3,9.1-3.3c3.4-1.2,6.6-2.9,9.7-4.6c2.1-1.2,4.1-2.5,5.8-4.3
						c1.6-1.7,3.3-3.3,4.9-5c0.5-0.5,0.9-1.2,1.3-1.8c0.7-1.1,1.3-2.1,1.9-3.2c2.6-4.6,4.6-9.4,5.1-14.8
						C118.8,72.6,118.8,70.3,118.9,68.3z"/>
					<path class="st3" d="M75.2,51.3c0-0.1,0,0.3,0.1,0.8s0.2,1,0.3,1.5c0.4,1.2,1.3,1.9,2.6,1.9c2.5,0,4-1.9,3.3-4.3
						c-0.2-0.7-0.5-1.4-0.8-2.1c-0.6-1.1-2.6-1.8-3.7-1.2S75.1,49.4,75.2,51.3z"/>
					<path class="st2" d="M111.4,63.8c0,2.2,0,4.3,0,6.5c0,1.1-0.2,2.1-0.6,3.2c-0.7,1.7-1.3,3.4-2.1,5.1c-0.7,1.5-1.4,3-2.3,4.4
						c-2.2,3.2-4.1,6.7-6.8,9.5c-2.5,2.6-5.1,5-8.2,6.9c-1.3,0.8-2.6,1.4-4,1.9c-7.4,2.8-15.1,4-22.9,4.5c-3,0.2-6-0.1-8.9-0.9
						c-3.8-1-7.5-2.2-10.9-4.2c-0.5-0.3-1-0.5-1.6-0.7c-2.4-0.8-4.6-2.1-6.6-3.6c-1.9-1.4-3.6-3.2-5.2-5c-2.8-3.2-4.6-6.9-5.7-11
						c0-0.2,0-0.3-0.1-0.5c-1.2-3.3-1.8-6.7-2.2-10.2c-0.4-3.9-0.4-7.8,0-11.7c0.1-1.2,0.4-2.5,0.4-3.7c0-1.6,0.3-3.1,0.8-4.6
						c0.8-2.3,1.3-4.7,2.2-6.9c1.2-2.7,2.5-5.4,4-8c1.7-3,4-5.5,6.2-8.1c0.4-0.5,0.8-0.6,1.4-0.8c0.6-0.1,1.2-0.8,1.8-1.3
						c1.2-1.1,2.3-2.4,3.8-3.2c3.5-1.6,6.9-3.4,10.7-4.2s7.7-1.7,11.5-2.3c2.4-0.4,4.8-0.4,7.2,0c1.2,0.2,2.3,0.3,3.4-0.2
						c0.3-0.2,0.8-0.2,1.2,0c1.7,0.6,3.5,1.1,5.1,1.9c2.4,1.1,4.7,2.4,7.1,3.6c5.4,2.7,9.4,6.8,12.6,11.8c1.6,2.6,3.2,5.3,4.3,8.1
						c1.7,4.4,3.3,8.9,4.1,13.6c0.2,1.6,0.4,3.1,0.5,4.7C111.5,60.3,111.4,62.1,111.4,63.8L111.4,63.8z M108.4,63.8
						c0-1.9,0-3.8,0-5.8c0-1.1-0.2-2.2-0.3-3.2c-0.7-4.6-2.4-9-3.9-13.4c-1-3-2.6-5.8-4.3-8.4c-2-3.2-4.4-6.1-7.6-8.2
						c-2.6-1.7-5.2-3.3-7.9-4.7c-2.1-1-4.2-1.5-6.5-1.6c-1.7,0-3.3-0.2-5-0.5c-2.4-0.4-4.8-0.5-7.2,0.1c-2.6,0.6-5.2,1.1-7.8,1.6
						c-4.1,0.6-7.9,2.1-11.5,3.9C45.1,24.2,44,25,42.9,26c-0.9,1-2,1.7-2.9,2.7c-1.8,1.8-3.7,3.5-5.2,5.6c-1.4,2-2.8,3.9-3.6,6.2
						c-0.2,0.5-0.6,1-0.9,1.5c-0.2,0.4-0.6,0.8-0.7,1.3c-1,2.7-1.9,5.5-2.9,8.3c-0.2,0.7-0.4,1.5-0.3,2.2c0.1,2-0.2,4-0.3,5.9
						c-0.3,4.3-0.1,8.6,0.6,12.9c0.5,3.1,1.6,5.9,2.4,8.9c0.7,2.8,2.2,5.2,4,7.4c1.5,1.8,3.1,3.5,4.9,4.9c1.8,1.4,3.9,2.6,6.1,3.3
						c0.7,0.2,1.4,0.6,2,1c3.1,1.7,6.4,2.8,9.8,3.7c2.4,0.7,4.9,0.9,7.4,0.9c6.5,0,12.8-1.1,19-2.8c2.5-0.7,4.9-1.5,7.2-2.8
						c3-1.8,5.6-4.2,8-6.7c2.6-2.7,4.3-5.9,6.4-8.9c2-2.9,3-6.3,4.3-9.5c0.3-0.7,0.3-1.5,0.3-2.2C108.4,67.8,108.4,65.8,108.4,63.8z
						"/>
				</g>
			</g>
		</g>
	</g>
</g>
<g>
	<g>
		<path class="st1" d="M229.2,81.3v17.1h-3.1v-36c0-2.6,0-5.3-0.1-7.7h3.1c0.1,1.2,0.1,3.1,0.1,5.6c1.9-3.7,5.4-6.4,11-6.4
			c7.4,0,12.5,6.2,12.5,15.5c0,11.2-6,17.2-13.6,17.2C233.7,86.7,230.8,84.3,229.2,81.3z M249.4,69.7c0-7.2-3.5-12.7-9.7-12.7
			c-7.6,0-10.7,4.7-10.7,13.2c0,8.4,2.4,13.6,10.2,13.6C245.8,83.8,249.4,78.3,249.4,69.7z"/>
		<path class="st1" d="M263.6,39.9v20c1.8-3.2,4.8-6,10.3-6c4.4,0,10.6,2.2,10.6,12.1v20h-3.1V66.7c0-6.2-2.8-9.7-8-9.7
			c-6.2,0-9.7,3.8-9.7,11.5V86h-3.1V40C260.5,39.9,263.6,39.9,263.6,39.9z"/>
		<path class="st1" d="M320,70.3c0,8.7-4.8,16.4-14.1,16.4c-8.4,0-13.7-6.9-13.7-16.4c0-8.9,4.9-16.4,14-16.4
			C314.5,54,320,60.5,320,70.3z M295.5,70.3c0,7.4,4,13.4,10.6,13.4c6.7,0,10.6-5.6,10.6-13.4c0-7.4-3.7-13.4-10.7-13.4
			C298.9,56.9,295.5,62.9,295.5,70.3z"/>
		<path class="st1" d="M323.1,54.7h5.8V45h3.1v9.7h7.4v2.9H332V78c0,3.5,0.8,5.5,3.7,5.5c0.9,0,2.2-0.1,3.2-0.4v2.7
			c-1.1,0.4-2.6,0.6-3.9,0.6c-4,0-6.2-2-6.2-7V57.7H323L323.1,54.7L323.1,54.7z"/>
		<path class="st1" d="M370.7,70.3c0,8.7-4.8,16.4-14.1,16.4c-8.4,0-13.7-6.9-13.7-16.4c0-8.9,4.9-16.4,14-16.4
			C365.2,54,370.7,60.5,370.7,70.3z M346.3,70.3c0,7.4,4,13.4,10.6,13.4c6.7,0,10.6-5.6,10.6-13.4c0-7.4-3.7-13.4-10.7-13.4
			C349.6,56.9,346.3,62.9,346.3,70.3z"/>
	</g>
	<g>
		<path class="st2" d="M214.1,43.2c0.1,0.7,0.1,0.6,0.3,1c0.4-0.3,0.3-0.2,1-0.3c0.3,5.2-2.7,13.3-7.5,13.9
			c-0.2-6.2,0-12.8,4.4-14.3C212.9,43.3,213.3,43.3,214.1,43.2z"/>
		<path class="st2" d="M202.9,65.7c-0.5,0-0.9,0-1.4,0c-0.7,1.6-1.1,3.7-3.1,4.1c-0.2-0.5-0.3-0.8-0.3-1.7c-0.5,0-0.9,0-1.4,0
			c-0.7-1-1.6-1.5-2.4-2.4c-4.3-0.3-10.5-0.4-10.5,4.4c0.4,0.7,0,1.7,0.3,2.7c0.4,1.5,1.6,3.7,2,5.1c-0.1,1-0.2,2-0.3,3.1
			c0.4,2.5,1.5,4.1,1.7,6.5c-1.5,1.5-1.9,3.2-4.8,3.4c-0.4-1.2-1.1-2.2-1.7-3.4c-0.2,0-0.5,0-0.7,0c-0.7,1.2-1.1,1.6-3.1,1.7
			c-0.1-0.3-0.2-0.7-0.3-1c-1.3-2-0.4-5.4-1-8.2c-1.1-5-2-9.9-2-15.6c2.2-1.5,2.3-4.8,5.1-5.8c1-0.6,0.9-0.1,1.7,0.3
			c0.6-0.4,0.7-0.8,1.7-1c0.3,1.1-0.2,0.5,0.7,1c0.5-0.6,0.2-0.4,1-0.7c0,0.6,0,1.1,0,1.7c-0.4,0.5-0.3,1.4-0.3,2.4
			c0.2,0,0.5,0,0.7,0c2.7-4.2,11.9-7.4,16.7-2.7c0.6,0.6,0.8,1.8,1.4,2.4C202.7,63.2,202.8,64.4,202.9,65.7z"/>
		<path class="st2" d="M213.1,57.5c0.3,1.1-0.2,0.5,0.7,1c0.4-0.3,0.6-0.3,1.4-0.3c0,6.8-0.2,12.5,0.3,18.7c0.1,1.8,1.6,5.4,1,6.5
			c-1,4-4.4,4.4-8.2,4.1C208,78.1,203,59.5,213.1,57.5z"/>
		<path class="st2" d="M170,52.1c-0.7-2.8-0.1-4.6-1-6.8c-2.6-6-9.4-8.7-17.7-8.5c-1.9,0.7-3.8,1.4-5.8,2
			c-3.7,2.2-9.4,8.2-11.2,12.2c-5.8,12.9,0.9,29.9,10.9,33c5.7,1.8,12-1.7,14.6-3.4c5.4-3.5,9.6-8.5,11.6-15.3
			C172.8,60.6,170.9,55.6,170,52.1z M139.4,49.4c-0.1,0-0.2,0-0.3,0c0.7-5.1,5.2-5.3,8.5-7.8c0.5,0,0.9,0,1.4,0c0,0.1,0,0.2,0,0.3
			c-4.4,1.2-6.2,4.6-9.5,6.8C139.4,48.9,139.4,49.1,139.4,49.4z M145.2,71.1c-2.3-4.2-4.3-18-1-22.8c1.5-2.2,4.6-2.5,6.8-4.1
			c2.2,0,4,0.3,4.8,0.7c5,1.6,9.7,16.5,7.1,23.8c-1.6,4.5-7,6.8-12.9,6.8C148.5,74.1,146.3,73,145.2,71.1z M164.6,72.8
			c-1.5,2.5-3.4,4.6-6.1,5.8c-1.3,0.5-3,0.3-4.1,1c-0.8,0-1.6,0-2.4,0c0-0.1,0-0.2,0-0.3c6-1.4,11.4-5.3,13.9-10.2
			C166.5,70.1,165.2,71.9,164.6,72.8z"/>
	</g>
</g>
</svg>
